<?xml version="1.0" encoding="UTF-8"?>
<svg width="99px" height="37px" viewBox="0 0 99 37" version="1.1" xmlns="http://www.w3.org/2000/svg" xmlns:xlink="http://www.w3.org/1999/xlink">
    <title>logo_sinola</title>
    <g id="pdf" stroke="none" stroke-width="1" fill="none" fill-rule="evenodd">
        <g id="logo_sinola" transform="translate(0.000000, 1.000000)" fill-rule="nonzero">
            <g id="g10" transform="translate(49.500000, 17.556800) scale(-1, 1) rotate(-180.000000) translate(-49.500000, -17.556800) translate(0.000000, 0.056800)">
                <g id="g12">
                    <g id="g14-Clipped">
                        <g id="g14" transform="translate(0.333333, 0.333332)">
                            <g id="g20" transform="translate(0.993067, 21.159599)" fill="#FFC400">
                                <path d="M29.3333326,5.3333332 L22.1186661,0.606666652 L21.9106661,0.606666652 C20.5986662,2.6346666 18.3213329,3.9759999 15.7266663,3.9759999 C13.1306663,3.9759999 10.8533331,2.6346666 9.54133309,0.606666652 L0.0653333317,0.606666652 C1.84533329,7.59866648 8.1799998,12.7719997 15.7266663,12.7719997 C21.4373328,12.7719997 26.4613327,9.80666642 29.3333326,5.3333332" id="path22"></path>
                            </g>
                            <g id="g24" transform="translate(3.054267, 0.436933)" fill="#FFC400">
                                <path d="M29.3333326,13.333333 C27.5533326,6.34133317 21.2106661,1.16799997 13.665333,1.16799997 C8.06533313,1.16799997 3.13066659,4.01466657 0.234666661,8.34133312 L7.59066648,13.1639997 C8.91866644,11.2333331 11.1413331,9.96399975 13.665333,9.96399975 C16.2599996,9.96399975 18.5373329,11.3053331 19.8493328,13.333333 L29.3333326,13.333333 Z" id="path26"></path>
                            </g>
                            <g id="g28" transform="translate(0.020400, 13.766400)" fill="#FF9300">
                                <path d="M9.3333331,3.9999999 C9.3333331,2.52799994 9.76399976,1.1533333 10.5146664,0.0039999999 L1.03333331,0.0039999999 C0.709333316,1.2813333 0.53733332,2.61999993 0.53733332,3.9999999 C0.53733332,5.3813332 0.709333316,6.7186665 1.03733332,7.9999998 L10.5146664,7.9999998 C9.76399976,6.8506665 9.3333331,5.47199986 9.3333331,3.9999999" id="path30"></path>
                            </g>
                            <g id="g32" transform="translate(22.218399, 13.766400)" fill="#FF9300">
                                <path d="M10.6666664,3.9999999 C10.6666664,2.61999993 10.4933331,1.2813333 10.1693331,0.0039999999 L0.685333316,0.0039999999 C1.43466663,1.1533333 1.86533329,2.52799994 1.86533329,3.9999999 C1.86533329,5.43466653 1.45866663,6.77333316 0.747999981,7.9039998 L0.893333311,7.9999998 L10.1666664,7.9999998 C10.4933331,6.7186665 10.6666664,5.3813332 10.6666664,3.9999999" id="path34"></path>
                            </g>
                            <g id="g36" transform="translate(8.084266, 13.766400)" fill="#8132B4">
                                <path d="M15.9999996,3.9999999 C15.9999996,2.52799994 15.5693329,1.1533333 14.8186663,0.0039999999 L2.45066661,0.0039999999 C1.69999996,1.1533333 1.2693333,2.52799994 1.2693333,3.9999999 C1.2693333,5.47199986 1.69999996,6.8506665 2.45066661,7.9999998 L14.8186663,7.9999998 C14.8426663,7.96933313 14.861333,7.93466647 14.881333,7.9039998 C15.5919996,6.77333316 15.9999996,5.43466653 15.9999996,3.9999999" id="path38"></path>
                            </g>
                            <g id="g40" transform="translate(40.612932, 9.248133)" fill="#ffffff">
                                <path d="M7.9999998,7.9999998 C7.73599981,8.25066646 7.42399981,8.46399979 7.06799982,8.63599978 C6.70933317,8.80666645 6.33333317,8.89333311 5.93599985,8.89333311 C5.63199986,8.89333311 5.35066653,8.83333311 5.09199987,8.71466645 C4.83466655,8.59466645 4.70533322,8.39066646 4.70533322,8.09866646 C4.70533322,7.82133314 4.84799988,7.62266648 5.13333321,7.50399981 C5.4173332,7.38533315 5.87599985,7.25199982 6.51199984,7.10666649 C6.88133316,7.02799982 7.25599982,6.91599983 7.63333314,6.76933316 C8.01066647,6.62399983 8.35066646,6.43199984 8.65466645,6.19466651 C8.95999978,5.95599985 9.20399977,5.66399986 9.3893331,5.31999987 C9.57466643,4.97599988 9.66666643,4.56666655 9.66666643,4.08933323 C9.66666643,3.46933325 9.54133309,2.94266659 9.29066643,2.51333327 C9.03866644,2.08266661 8.71066645,1.73599996 8.30666646,1.47199996 C7.9039998,1.2053333 7.45066648,1.01466664 6.94799983,0.895999978 C6.44533317,0.775999981 5.94266652,0.715999982 5.43999986,0.715999982 C4.63333322,0.715999982 3.84266657,0.845333312 3.06933326,1.10399997 C2.29466661,1.3613333 1.64933329,1.74266662 1.13466664,2.24533328 L2.95999993,4.16933323 C3.24933325,3.85333324 3.60799991,3.58666658 4.03066657,3.37599992 C4.45466656,3.16399992 4.90533321,3.05866659 5.37999987,3.05866659 C5.64399986,3.05866659 5.90666652,3.12133326 6.16399985,3.24799992 C6.42133317,3.37199992 6.55199984,3.59333324 6.55199984,3.9119999 C6.55199984,4.21599998 6.39333317,4.44133322 6.07599985,4.58533322 C5.75733319,4.73199988 5.2613332,4.88399988 4.58666655,5.04266654 C4.24266656,5.12266654 3.89866657,5.22799987 3.55466658,5.3613332 C3.21066659,5.49199986 2.90399993,5.67199986 2.63199993,5.89599985 C2.36133327,6.12133318 2.13866661,6.39866651 1.96799995,6.7306665 C1.79599996,7.05999982 1.70933329,7.45733315 1.70933329,7.9199998 C1.70933329,8.51599979 1.83466662,9.02266644 2.08533328,9.43866643 C2.33733327,9.85599975 2.66133327,10.1959997 3.05866659,10.4613331 C3.45599991,10.7253331 3.8959999,10.9199997 4.37866656,11.0466664 C4.86133321,11.1719997 5.3413332,11.2346664 5.81733319,11.2346664 C6.5586665,11.2346664 7.28266648,11.1186664 7.99066647,10.8879997 C8.69733312,10.6559997 9.2973331,10.3079997 9.78666642,9.84533309 L7.9999998,7.9999998 Z" id="path42"></path>
                            </g>
                            <path d="M52.205332,20.1653328 L55.4599986,20.1653328 L55.4599986,10.2826664 L52.205332,10.2826664 L52.205332,20.1653328 Z M55.6973319,23.3213328 C55.6973319,23.0693328 55.6479986,22.8346661 55.5493319,22.6159994 C55.4506653,22.3973328 55.317332,22.2093328 55.1519986,22.0506661 C54.9866653,21.8919995 54.7879986,21.7666661 54.557332,21.6733328 C54.325332,21.5813328 54.0839986,21.5346661 53.833332,21.5346661 C53.3026653,21.5346661 52.8599987,21.7106661 52.5039987,22.0599994 C52.145332,22.4106661 51.9666654,22.8319994 51.9666654,23.3213328 C51.9666654,23.5586661 52.013332,23.7866661 52.1066654,24.0053327 C52.1986654,24.2239994 52.3306654,24.4119994 52.5039987,24.5706661 C52.6746653,24.7293327 52.873332,24.858666 53.0986653,24.9573327 C53.3226653,25.0573327 53.5666653,25.1079994 53.833332,25.1079994 C54.0839986,25.1079994 54.325332,25.0599994 54.557332,24.9679994 C54.7879986,24.8759994 54.9866653,24.7493327 55.1519986,24.5906661 C55.317332,24.4319994 55.4506653,24.2439994 55.5493319,24.0253327 C55.6479986,23.8066661 55.6973319,23.5719994 55.6973319,23.3213328" id="path44" fill="#ffffff"></path>
                            <g id="g46" transform="translate(58.258665, 10.282000)" fill="#ffffff">
                                <path d="M6.6666665,0 L6.6666665,5.39866653 C6.6666665,5.67599986 6.64399983,5.93999985 6.59733317,6.19333318 C6.5506665,6.44266651 6.4746665,6.66533317 6.36933317,6.85733316 C6.26266651,7.04799982 6.11466651,7.19999982 5.92266652,7.31333315 C5.73066652,7.42533315 5.4893332,7.48133315 5.19866654,7.48133315 C4.90799988,7.48133315 4.65199988,7.42533315 4.43466656,7.31333315 C4.21599989,7.19999982 4.03333323,7.04533316 3.88933324,6.84799983 C3.74399991,6.64799983 3.63466658,6.41999984 3.56133324,6.16266651 C3.48799991,5.90533319 3.45199991,5.63733319 3.45199991,5.35866653 L3.45199991,0 L0.177333329,0 L0.177333329,9.88266642 L3.33333325,9.88266642 L3.33333325,8.51466645 L3.37199992,8.51466645 C3.49199991,8.72533312 3.64666658,8.93333311 3.83866657,9.13866644 C4.03066657,9.34399977 4.25599989,9.51999976 4.51466655,9.66533309 C4.77199988,9.81066642 5.05333321,9.92933309 5.3573332,10.0226664 C5.66133319,10.1146664 5.98533318,10.1613331 6.32933318,10.1613331 C6.99066649,10.1613331 7.55333314,10.0413331 8.01733313,9.80533309 C8.47866645,9.56666643 8.85333311,9.2573331 9.13866644,8.88133311 C9.4213331,8.50399979 9.62799976,8.07066646 9.75199976,7.58133314 C9.87866642,7.09066649 9.94133308,6.60133317 9.94133308,6.11333318 L9.94133308,0 L6.6666665,0 Z" id="path48"></path>
                            </g>
                            <g id="g50" transform="translate(69.607598, 9.930400)" fill="#ffffff">
                                <path d="M7.9999998,5.3333332 C7.9999998,5.65066653 7.94666647,5.96133318 7.84133314,6.26533318 C7.73466647,6.5706665 7.58399981,6.8386665 7.38399982,7.06933316 C7.18666649,7.30133315 6.94133316,7.48933315 6.64933317,7.63599981 C6.35999984,7.78133314 6.02266652,7.85466647 5.63866653,7.85466647 C5.2533332,7.85466647 4.91599988,7.78133314 4.62666655,7.63599981 C4.33466656,7.48933315 4.09333323,7.30133315 3.90133324,7.06933316 C3.70933324,6.8386665 3.56399991,6.5706665 3.46533325,6.26533318 C3.36533325,5.96133318 3.31599992,5.65066653 3.31599992,5.3333332 C3.31599992,5.01599987 3.36533325,4.70399988 3.46533325,4.39999989 C3.56399991,4.0959999 3.71333324,3.82133324 3.9119999,3.57733324 C4.10933323,3.33199992 4.35466656,3.13733325 4.64533322,2.99066659 C4.93599988,2.84533326 5.2733332,2.77333326 5.65733319,2.77333326 C6.04133318,2.77333326 6.37866651,2.84533326 6.6706665,2.99066659 C6.96133316,3.13733325 7.20533315,3.33199992 7.40533315,3.57733324 C7.60266648,3.82133324 7.75066647,4.0959999 7.85066647,4.39999989 C7.95066647,4.70399988 7.9999998,5.01599987 7.9999998,5.3333332 M11.1359997,5.3333332 C11.1359997,4.52666655 10.9893331,3.79599991 10.6986664,3.13999992 C10.4079997,2.48533327 10.0106664,1.92933329 9.50799976,1.47199996 C9.00533311,1.01733331 8.42266646,0.66266665 7.76133314,0.41199999 C7.09999982,0.159999996 6.39199984,0.0333333325 5.63866653,0.0333333325 C4.89733321,0.0333333325 4.19333323,0.159999996 3.52533325,0.41199999 C2.85733326,0.66266665 2.27466661,1.01733331 1.77866662,1.47199996 C1.28266663,1.92933329 0.887999978,2.48533327 0.597333318,3.13999992 C0.305333326,3.79599991 0.159999996,4.52666655 0.159999996,5.3333332 C0.159999996,6.13999985 0.305333326,6.8666665 0.597333318,7.51599981 C0.887999978,8.1639998 1.28266663,8.71333312 1.77866662,9.16266644 C2.27466661,9.61333309 2.85733326,9.95733308 3.52533325,10.1946664 C4.19333323,10.4333331 4.89733321,10.5519997 5.63866653,10.5519997 C6.39199984,10.5519997 7.09999982,10.4333331 7.76133314,10.1946664 C8.42266646,9.95733308 9.00533311,9.61333309 9.50799976,9.16266644 C10.0106664,8.71333312 10.4079997,8.1639998 10.6986664,7.51599981 C10.9893331,6.8666665 11.1359997,6.13999985 11.1359997,5.3333332" id="path52"></path>
                            </g>
                            <polygon id="path54" fill="#ffffff" points="82.4493313 25.2853327 85.7626645 25.2853327 85.7626645 10.2813331 82.4493313 10.2813331"></polygon>
                            <g id="g56" transform="translate(87.093331, 9.255866)" fill="#ffffff">
                                <path d="M6.6666665,5.3333332 L6.25066651,5.3333332 C5.89333319,5.3333332 5.53199986,5.31599987 5.1693332,5.28399987 C4.80533321,5.25066654 4.47999989,5.18799987 4.1959999,5.09466654 C3.9119999,5.00266654 3.67733324,4.86533321 3.49199991,4.68799988 C3.30533325,4.50933322 3.21333325,4.27466656 3.21333325,3.98266657 C3.21333325,3.79866657 3.25599992,3.63866658 3.34266658,3.50666658 C3.42799991,3.37466658 3.53733324,3.26933325 3.67066657,3.19066659 C3.80266657,3.11066659 3.95466657,3.05333326 4.1279999,3.02133326 C4.29866656,2.98799993 4.46533322,2.97199993 4.62399988,2.97199993 C5.2853332,2.97199993 5.79066652,3.15199992 6.14133318,3.51733325 C6.49199984,3.8799999 6.6666665,4.37333322 6.6666665,4.99599988 L6.6666665,5.3333332 Z M0.694666649,9.55999976 C1.27599997,10.1159997 1.95466662,10.5319997 2.72799993,10.8093331 C3.50133325,11.0879997 4.29199989,11.2266664 5.09866654,11.2266664 C5.93199985,11.2266664 6.6386665,11.1253331 7.21333315,10.9186664 C7.78933314,10.7133331 8.25466646,10.3973331 8.61199978,9.96799975 C8.96933311,9.53599976 9.23066644,8.99466644 9.39599977,8.33999979 C9.56133309,7.68533314 9.64399976,6.90799983 9.64399976,6.00799985 L9.64399976,1.02666664 L6.6666665,1.02666664 L6.6666665,2.07866661 L6.60799983,2.07866661 C6.35733317,1.66799996 5.97466652,1.35066663 5.46666653,1.12533331 C4.95733321,0.901333311 4.40533322,0.78799998 3.80933324,0.78799998 C3.41333325,0.78799998 3.00266659,0.841333312 2.57999994,0.946666643 C2.15466661,1.05199997 1.76799996,1.2253333 1.4173333,1.46399996 C1.06799997,1.69999996 0.77999998,2.01866662 0.554666653,2.41599994 C0.329333325,2.81199993 0.217333328,3.30266658 0.217333328,3.8839999 C0.217333328,4.59866655 0.413333323,5.17466654 0.80399998,5.61066653 C1.1933333,6.04666652 1.69466662,6.38399984 2.31066661,6.6226665 C2.92533326,6.86133316 3.61066658,7.01999982 4.36399989,7.09866649 C5.11999987,7.17866649 5.85466652,7.21866649 6.56799984,7.21866649 L6.56799984,7.37733315 C6.56799984,7.86533314 6.39599984,8.22666646 6.05199985,8.45866646 C5.70799986,8.69066645 5.2853332,8.80533311 4.78133321,8.80533311 C4.31866656,8.80533311 3.8719999,8.70666645 3.44266658,8.50799979 C3.01199992,8.30933313 2.64399993,8.0719998 2.34133327,7.79466647 L0.694666649,9.55999976 Z" id="path58"></path>
                            </g>
                        </g>
                    </g>
                </g>
            </g>
        </g>
    </g>
</svg>